<?xml version="1.0" encoding="UTF-8" standalone="no"?>
<!-- Created with Inkscape (http://www.inkscape.org/) -->

<svg
   version="1.1"
   id="svg11573"
   width="880"
   height="880"
   viewBox="0 0 880 880"
   sodipodi:docname="tree-house-publicdomain.svg"
   inkscape:version="1.2 (dc2aedaf03, 2022-05-15)"
   xmlns:inkscape="http://www.inkscape.org/namespaces/inkscape"
   xmlns:sodipodi="http://sodipodi.sourceforge.net/DTD/sodipodi-0.dtd"
   xmlns="http://www.w3.org/2000/svg"
   xmlns:svg="http://www.w3.org/2000/svg">
  <defs
     id="defs11577">
    <clipPath
       clipPathUnits="userSpaceOnUse"
       id="clipPath11591">
      <path
         d="M 0,660 H 660 V 0 H 0 Z"
         id="path11589" />
    </clipPath>
  </defs>
  <sodipodi:namedview
     id="namedview11575"
     pagecolor="#ffffff"
     bordercolor="#000000"
     borderopacity="0.25"
     inkscape:showpageshadow="2"
     inkscape:pageopacity="0.0"
     inkscape:pagecheckerboard="0"
     inkscape:deskcolor="#d1d1d1"
     showgrid="false"
     inkscape:zoom="0.95113636"
     inkscape:cx="441.05137"
     inkscape:cy="440.52569"
     inkscape:window-width="1920"
     inkscape:window-height="1017"
     inkscape:window-x="-8"
     inkscape:window-y="-8"
     inkscape:window-maximized="1"
     inkscape:current-layer="g11581">
    <inkscape:page
       x="0"
       y="0"
       id="page11579"
       width="880"
       height="880" />
  </sodipodi:namedview>
  <g
     id="g11581"
     inkscape:groupmode="layer"
     inkscape:label="Page 1"
     transform="matrix(1.3333333,0,0,-1.3333333,0,880)">
    <path
       d="M 0,0 H 660 V 660 H 0 Z"
       style="fill:#ede8d0;fill-opacity:1;fill-rule:nonzero;stroke:none"
       id="path11583" />
    <g
       id="g11585">
      <g
         id="g11587"
         clip-path="url(#clipPath11591)">
        <g
           id="g11593"
           transform="translate(461.0498,467.0703)">
          <path
             d="m 0,0 c 43.155,0 78.353,35.196 78.353,78.352 0,43.155 -35.198,78.352 -78.353,78.352 -43.154,0 -78.352,-35.197 -78.352,-78.352 C -78.352,35.196 -43.154,0 0,0"
             style="fill:#ffcc00;fill-opacity:1;fill-rule:evenodd;stroke:none"
             id="path11595" />
        </g>
        <g
           id="g11597"
           transform="translate(104.0054,218.5332)">
          <path
             d="m 0,0 h 452.837 c 42.68,0 77.599,-34.92 77.599,-77.6 0,-42.679 -34.919,-77.598 -77.599,-77.598 H 0 c -42.68,0 -77.6,34.919 -77.6,77.598 C -77.6,-34.92 -42.68,0 0,0"
             style="fill:#a7bf1c;fill-opacity:1;fill-rule:evenodd;stroke:none"
             id="path11599" />
        </g>
        <g
           id="g11601"
           transform="translate(292.1387,595.8179)">
          <path
             d="m 0,0 h 13.788 c 71.084,0 129.243,-58.16 129.243,-129.243 v -55.719 c 0,-48.021 -39.29,-87.311 -87.311,-87.311 h -97.651 c -48.021,0 -87.311,39.29 -87.311,87.311 v 55.719 C -129.242,-58.16 -71.083,0 0,0"
             style="fill:#82970a;fill-opacity:1;fill-rule:evenodd;stroke:none"
             id="path11603" />
        </g>
        <g
           id="g11605"
           transform="translate(167.7822,162.9668)">
          <path
             d="m 0,0 h 351.606 c 8.35,0 15.181,-6.831 15.181,-15.179 0,-8.349 -6.831,-15.182 -15.181,-15.182 H 0 c -8.35,0 -15.181,6.833 -15.181,15.182 C -15.181,-6.831 -8.35,0 0,0"
             style="fill:#94ab13;fill-opacity:1;fill-rule:evenodd;stroke:none"
             id="path11607" />
        </g>
        <g
           id="g11609"
           transform="translate(214.915,393.6191)">
          <path
             d="m 0,0 h 73.209 v -83.493 c 0,-9.292 7.604,-16.895 16.897,-16.895 9.291,0 16.895,7.603 16.895,16.895 V 0 h 35.992 V -243.87 H 0 Z"
             style="fill:#823103;fill-opacity:1;fill-rule:evenodd;stroke:none"
             id="path11611" />
        </g>
        <path
           d="m 321.916,349.3 h 35.992 v -32.564 h -35.992 z m -33.792,-32.565 h -73.209 v 32.564 h 73.209 z"
           style="fill:#662703;fill-opacity:1;fill-rule:evenodd;stroke:none"
           id="path11613" />
        <g
           id="g11615"
           transform="translate(200.7148,183.5381)">
          <path
             d="m 0,0 h 171.394 c 9.292,0 16.895,-7.602 16.895,-16.896 0,-9.291 -7.603,-16.893 -16.895,-16.893 H 0 c -9.292,0 -16.896,7.602 -16.896,16.893 C -16.896,-7.602 -9.292,0 0,0"
             style="fill:#823103;fill-opacity:1;fill-rule:evenodd;stroke:none"
             id="path11617" />
        </g>
        <g
           id="g11619"
           transform="translate(205.5166,573.8281)">
          <path
             d="M 0,0 H 8.452 C 52.03,0 87.687,-35.655 87.687,-79.236 v -34.159 c 0,-29.441 -24.087,-53.53 -53.529,-53.53 h -59.867 c -29.441,0 -53.528,24.089 -53.528,53.53 v 34.159 C -79.237,-35.655 -43.582,0 0,0"
             style="fill:#bad526;fill-opacity:1;fill-rule:evenodd;stroke:none"
             id="path11621" />
        </g>
        <g
           id="g11623"
           transform="translate(274.4648,364.2144)">
          <path
             d="m 0,0 h 238.925 c 5.253,0 9.549,-4.297 9.549,-9.549 0,-5.253 -4.296,-9.55 -9.549,-9.55 H 0 c -5.252,0 -9.55,4.297 -9.55,9.55 C -9.55,-4.297 -5.252,0 0,0"
             style="fill:#823103;fill-opacity:1;fill-rule:evenodd;stroke:none"
             id="path11625" />
        </g>
        <g
           id="g11627"
           transform="translate(416.6758,457.2778)">
          <path
             d="m 0,0 h -49.831 -49.831 l 24.916,22.771 24.915,22.771 H 34.398 L 34.398,0 Z"
             style="fill:#823103;fill-opacity:1;fill-rule:evenodd;stroke:none"
             id="path11629" />
        </g>
        <path
           d="m 335.749,364.214 h 148.869 v 93.063 H 335.749 Z"
           style="fill:#e39400;fill-opacity:1;fill-rule:evenodd;stroke:none"
           id="path11631" />
        <g
           id="g11633"
           transform="translate(451.0742,502.8198)">
          <path
             d="M 0,0 24.916,-22.771 49.831,-45.542 H 0 -49.831 l 24.916,22.771 z"
             style="fill:#a6450d;fill-opacity:1;fill-rule:evenodd;stroke:none"
             id="path11635" />
        </g>
        <g
           id="g11637"
           transform="translate(266.3335,569.4219)">
          <path
             d="M 0,0 H 0.002 C 63.833,0 116.06,-52.227 116.06,-116.059 v -81.781 c 0,-18.854 -15.424,-34.279 -34.277,-34.279 H -81.78 c -18.853,0 -34.278,15.425 -34.278,34.279 v 81.781 C -116.058,-52.227 -63.831,0 0,0"
             style="fill:#94ab13;fill-opacity:1;fill-rule:evenodd;stroke:none"
             id="path11639" />
        </g>
        <g
           id="g11641"
           transform="translate(294.9824,422.022)">
          <path
             d="m 0,0 c 6.354,0 11.506,-5.152 11.506,-11.508 0,-6.355 -5.152,-11.508 -11.506,-11.508 -6.355,0 -11.509,5.153 -11.509,11.508 C -11.509,-5.152 -6.355,0 0,0 m -79.332,5.386 c 9.33,0 16.895,-7.564 16.895,-16.894 0,-9.331 -7.565,-16.895 -16.895,-16.895 -9.331,0 -16.895,7.564 -16.895,16.895 0,9.33 7.564,16.894 16.895,16.894 m 11.507,68.069 c 12.982,0 23.507,-10.524 23.507,-23.506 0,-12.982 -10.525,-23.506 -23.507,-23.506 -12.982,0 -23.505,10.524 -23.505,23.506 0,12.982 10.523,23.506 23.505,23.506 m 88.146,6.366 c 16.77,0 30.361,-13.593 30.361,-30.361 0,-16.768 -13.591,-30.361 -30.361,-30.361 -16.766,0 -30.36,13.593 -30.36,30.361 0,16.768 13.594,30.361 30.36,30.361"
             style="fill:#bad526;fill-opacity:1;fill-rule:evenodd;stroke:none"
             id="path11643" />
        </g>
        <g
           id="g11645"
           transform="translate(265.1094,446.5068)">
          <path
             d="m 0,0 c 2.57,0 4.653,-2.082 4.653,-4.652 0,-2.57 -2.083,-4.652 -4.653,-4.652 -2.57,0 -4.651,2.082 -4.651,4.652 C -4.651,-2.082 -2.57,0 0,0 m -12.488,-56.315 c 9.736,0 17.631,-7.893 17.631,-17.63 0,-9.736 -7.895,-17.629 -17.631,-17.629 -9.735,0 -17.627,7.893 -17.627,17.629 0,9.737 7.892,17.63 17.627,17.63 M 1.741,101.368 c 14.077,0 25.489,-11.412 25.489,-25.49 0,-14.078 -11.412,-25.491 -25.489,-25.491 -14.079,0 -25.49,11.413 -25.49,25.491 0,14.078 11.411,25.49 25.49,25.49 M 90.84,-31.34 c 8.654,0 15.672,-7.016 15.672,-15.671 0,-8.655 -7.018,-15.671 -15.672,-15.671 -8.655,0 -15.67,7.016 -15.67,15.671 0,8.655 7.015,15.671 15.67,15.671"
             style="fill:#82970a;fill-opacity:1;fill-rule:evenodd;stroke:none"
             id="path11647" />
        </g>
        <g
           id="g11649"
           transform="translate(178.0352,380.9912)">
          <path
             d="m 0,0 c 5.437,0 9.846,-4.408 9.846,-9.846 0,-5.437 -4.409,-9.846 -9.846,-9.846 -5.438,0 -9.846,4.409 -9.846,9.846 C -9.846,-4.408 -5.438,0 0,0 m 114.498,3.323 c 8.249,0 14.936,-6.687 14.936,-14.935 0,-8.249 -6.687,-14.936 -14.936,-14.936 -8.249,0 -14.936,6.687 -14.936,14.936 0,8.248 6.687,14.935 14.936,14.935 m 34.769,148.87 c 5.273,0 9.548,-4.275 9.548,-9.549 0,-5.274 -4.275,-9.549 -9.548,-9.549 -5.275,0 -9.55,4.275 -9.55,9.549 0,5.274 4.275,9.549 9.55,9.549 M -4.499,73.841 c 7.437,0 13.467,-6.03 13.467,-13.467 0,-7.437 -6.03,-13.467 -13.467,-13.467 -7.438,0 -13.467,6.03 -13.467,13.467 0,7.437 6.029,13.467 13.467,13.467"
             style="fill:#cfe35d;fill-opacity:1;fill-rule:evenodd;stroke:none"
             id="path11651" />
        </g>
        <g
           id="g11653"
           transform="translate(262.0566,190.2461)">
          <path
             d="m 0,0 168.945,168.946 c 3.714,3.714 9.791,3.714 13.505,0.001 v -0.001 c 3.714,-3.714 3.714,-9.79 0,-13.504 L 13.505,-13.503 C 9.791,-17.218 3.714,-17.218 0,-13.503 -3.712,-9.789 -3.712,-3.714 0,0"
             style="fill:#823103;fill-opacity:1;fill-rule:evenodd;stroke:none"
             id="path11655" />
        </g>
        <path
           d="m 496.486,345.116 h 8.823 V 149.749 h -8.823 z m -49.948,0 h 8.823 V 149.749 h -8.823 z"
           style="fill:#a6450d;fill-opacity:1;fill-rule:evenodd;stroke:none"
           id="path11657" />
        <path
           d="m 455.361,298.832 h 41.125 v -5.142 h -41.125 z m 0,-17.847 h 41.125 v -5.142 h -41.125 z m 0,-17.846 h 41.125 v -5.143 h -41.125 z m 0,-17.848 h 41.125 v -5.143 h -41.125 z m 0,-17.847 h 41.125 v -5.143 h -41.125 z m 0,-17.845 h 41.125 v -5.143 h -41.125 z m 0,-17.848 h 41.125 v -5.143 h -41.125 z m 0,-17.848 h 41.125 v -5.141 h -41.125 z m 0,160.623 h 41.125 v -5.142 h -41.125 z m 0,-17.846 h 41.125 v -5.143 h -41.125 z"
           style="fill:#bd591e;fill-opacity:1;fill-rule:evenodd;stroke:none"
           id="path11659" />
        <path
           d="m 416.06,364.214 h 68.558 v 93.063 H 416.06 Z"
           style="fill:#ffbb00;fill-opacity:1;fill-rule:evenodd;stroke:none"
           id="path11661" />
        <g
           id="g11663"
           transform="translate(484.6182,419.0825)">
          <path
             d="m 0,0 h -57.664 c -2.761,0 -5.02,-2.259 -5.02,-5.02 0,-2.76 2.259,-5.019 5.02,-5.019 H 0 Z m -68.558,-37.707 h 18.363 c 3.5,0 6.365,-2.865 6.365,-6.366 0,-3.502 -2.865,-6.367 -6.365,-6.367 H -68.558 Z M 0,-37.952 h -15.061 c -2.491,0 -4.528,-2.038 -4.528,-4.529 0,-2.492 2.037,-4.53 4.528,-4.53 H 0 Z m -68.558,71.007 h 37.215 c 1.348,0 2.449,-1.102 2.449,-2.449 0,-1.347 -1.101,-2.448 -2.449,-2.448 h -37.215 z"
             style="fill:#ffdd30;fill-opacity:1;fill-rule:evenodd;stroke:none"
             id="path11665" />
        </g>
        <g
           id="g11667"
           transform="translate(438.3408,442.3413)">
          <path
             d="m 0,0 h 23.996 c 5.388,0 9.794,-4.406 9.794,-9.793 v -36.239 c 0,-5.386 -4.406,-9.793 -9.794,-9.793 H 0 c -5.387,0 -9.794,4.407 -9.794,9.793 V -9.793 C -9.794,-4.406 -5.387,0 0,0"
             style="fill:#a6450d;fill-opacity:1;fill-rule:evenodd;stroke:none"
             id="path11669" />
        </g>
        <g
           id="g11671"
           transform="translate(438.3408,435.9766)">
          <path
             d="m 0,0 h 23.996 c 1.886,0 3.429,-1.543 3.429,-3.428 v -36.239 c 0,-1.885 -1.543,-3.428 -3.429,-3.428 H 0 c -1.886,0 -3.427,1.543 -3.427,3.428 V -3.428 C -3.427,-1.543 -1.886,0 0,0"
             style="fill:#73c9c4;fill-opacity:1;fill-rule:evenodd;stroke:none"
             id="path11673" />
        </g>
        <g
           id="g11675"
           transform="translate(465.7656,422.1045)">
          <path
             d="M 0,0 -23.309,-29.223 H -7.883 L 0,-19.339 Z m -19.544,13.872 h 16.115 c 1.7,0 3.118,-1.251 3.382,-2.877 L -30.535,-27.23 c -0.203,0.436 -0.317,0.923 -0.317,1.435 v 25.487 z"
             style="fill:#8ededa;fill-opacity:1;fill-rule:evenodd;stroke:none"
             id="path11677" />
        </g>
        <g
           id="g11679"
           transform="translate(264.9229,76.3828)">
          <path
             d="m 0,0 c -3.194,0 -5.785,2.591 -5.785,5.785 0,3.193 2.591,5.783 5.785,5.783 h 85.697 c 3.196,0 5.783,-2.59 5.783,-5.783 C 91.48,2.591 88.893,0 85.697,0 Z m -145.931,43.585 c -3.194,0 -5.784,2.589 -5.784,5.783 0,3.196 2.59,5.784 5.784,5.784 h 22.037 c 3.194,0 5.783,-2.588 5.783,-5.784 0,-3.194 -2.589,-5.783 -5.783,-5.783 z m -59.743,-14.203 c -3.195,0 -5.784,2.591 -5.784,5.785 0,3.193 2.589,5.783 5.784,5.783 h 88.635 c 3.194,0 5.785,-2.59 5.785,-5.783 0,-3.194 -2.591,-5.785 -5.785,-5.785 z m 5.386,37.708 c -3.194,0 -5.784,2.591 -5.784,5.785 0,3.192 2.59,5.783 5.784,5.783 h 29.382 c 3.194,0 5.784,-2.591 5.784,-5.783 0,-3.194 -2.59,-5.785 -5.784,-5.785 z m 108.715,40.459 c 3.194,0 5.784,-2.589 5.784,-5.783 0,-3.195 -2.59,-5.784 -5.784,-5.784 h -74.434 c -3.195,0 -5.785,2.589 -5.785,5.784 0,3.194 2.59,5.783 5.785,5.783 z m 19.098,22.528 c 3.195,0 5.784,-2.593 5.784,-5.785 0,-3.194 -2.589,-5.785 -5.784,-5.785 h -79.331 c -3.194,0 -5.784,2.591 -5.784,5.785 0,3.192 2.59,5.785 5.784,5.785 z M -9.303,22.036 c -3.193,0 -5.785,2.589 -5.785,5.784 0,3.195 2.592,5.785 5.785,5.785 h 59.744 c 3.193,0 5.784,-2.59 5.784,-5.785 0,-3.195 -2.591,-5.784 -5.784,-5.784 z M -99.897,2.94 c -3.195,0 -5.785,2.588 -5.785,5.783 0,3.194 2.59,5.783 5.785,5.783 h 51.907 c 3.195,0 5.783,-2.589 5.783,-5.783 0,-3.195 -2.588,-5.783 -5.783,-5.783 z m 350.135,23.994 c -3.194,0 -5.783,2.59 -5.783,5.783 0,3.194 2.589,5.785 5.783,5.785 h 55.826 c 3.195,0 5.784,-2.591 5.784,-5.785 0,-3.193 -2.589,-5.783 -5.784,-5.783 z M 115.081,9.794 c -3.194,0 -5.783,2.591 -5.783,5.783 0,3.194 2.589,5.785 5.783,5.785 h 65.129 c 3.195,0 5.785,-2.591 5.785,-5.785 0,-3.192 -2.59,-5.783 -5.785,-5.783 z m 30.852,89.616 c -3.195,0 -5.785,2.589 -5.785,5.783 0,3.195 2.59,5.784 5.785,5.784 h 28.402 c 3.194,0 5.783,-2.589 5.783,-5.784 0,-3.194 -2.589,-5.783 -5.783,-5.783 z m 15.18,36.542 c 3.194,0 5.783,-2.59 5.783,-5.783 0,-3.194 -2.589,-5.785 -5.783,-5.785 h -50.439 c -3.195,0 -5.783,2.591 -5.783,5.785 0,3.193 2.588,5.783 5.783,5.783 z m 143.973,-13.221 c 3.192,0 5.783,-2.591 5.783,-5.785 0,-3.194 -2.591,-5.785 -5.783,-5.785 h -32.812 c -3.194,0 -5.783,2.591 -5.783,5.785 0,3.194 2.589,5.785 5.783,5.785 z"
             style="fill:#bad526;fill-opacity:1;fill-rule:evenodd;stroke:none"
             id="path11681" />
        </g>
        <g
           id="g11683"
           transform="translate(272.3896,292.7373)">
          <path
             d="m 0,0 h 0.001 c 2.357,0 4.285,-1.928 4.285,-4.285 v -8.08 c 0,-2.357 -1.928,-4.284 -4.285,-4.284 H 0 c -2.356,0 -4.283,1.927 -4.283,4.284 v 8.08 C -4.283,-1.928 -2.356,0 0,0 m -20.444,-64.64 v 0 c 1.616,0 2.936,-1.323 2.936,-2.939 v -53.376 c 0,-1.616 -1.32,-2.94 -2.936,-2.94 -1.616,0 -2.94,1.324 -2.94,2.94 v 53.376 c 0,1.616 1.324,2.939 2.94,2.939 m -15.303,42.115 v 0 c 2.761,0 5.018,-2.259 5.018,-5.021 v -57.539 c 0,-2.762 -2.257,-5.019 -5.018,-5.019 -2.761,0 -5.02,2.257 -5.02,5.019 v 57.539 c 0,2.762 2.259,5.021 5.02,5.021 M 1.47,-26.934 v 0 c 5.724,0 10.406,-4.682 10.406,-10.406 v -51.664 c 0,-5.723 -4.682,-10.406 -10.406,-10.406 -5.725,0 -10.408,4.683 -10.408,10.406 v 51.664 c 0,5.724 4.683,10.406 10.408,10.406 m 58.151,-29.381 v 0 c 4.041,0 7.346,-3.307 7.346,-7.346 v -48.237 c 0,-4.04 -3.305,-7.345 -7.346,-7.345 -4.04,0 -7.345,3.305 -7.345,7.345 v 48.237 c 0,4.039 3.305,7.346 7.345,7.346 m -21.735,13.868 v 0 c 3.033,0 5.51,-2.481 5.51,-5.509 v -53.134 c 0,-3.029 -2.481,-5.509 -5.51,-5.509 -3.028,0 -5.509,2.479 -5.509,5.509 v 53.134 c 0,3.028 2.481,5.509 5.509,5.509 m 27.857,36.57 v 0 c 4.848,0 8.814,-3.966 8.814,-8.814 v -7.345 c 0,-4.849 -3.966,-8.815 -8.814,-8.815 -4.847,0 -8.814,3.966 -8.814,8.815 v 7.345 c 0,4.848 3.967,8.814 8.814,8.814 M -32.441,33.55 v 0 c 4.645,0 8.447,-3.801 8.447,-8.448 v -8.817 c 0,-4.645 -3.802,-8.447 -8.447,-8.447 -4.647,0 -8.449,3.802 -8.449,8.447 v 8.817 c 0,4.647 3.802,8.448 8.449,8.448"
             style="fill:#662703;fill-opacity:1;fill-rule:evenodd;stroke:none"
             id="path11685" />
        </g>
      </g>
    </g>
  </g>
</svg>
